<?xml version="1.0" standalone="no"?>
<!DOCTYPE svg PUBLIC "-//W3C//DTD SVG 20010904//EN"
 "http://www.w3.org/TR/2001/REC-SVG-20010904/DTD/svg10.dtd">
<svg version="1.0" xmlns="http://www.w3.org/2000/svg"
 width="1024.000000pt" height="1024.000000pt" viewBox="0 0 1024.000000 1024.000000"
 preserveAspectRatio="xMidYMid meet">
<metadata>
Created by potrace 1.14, written by Peter Selinger 2001-2017
</metadata>
<g transform="translate(0.000000,1024.000000) scale(0.100000,-0.100000)"
fill="#000000" stroke="none">
<path d="M3220 7695 c-93 -21 -144 -40 -215 -80 -64 -35 -177 -132 -140 -120
125 43 153 48 290 48 161 0 248 -18 366 -78 103 -52 148 -85 225 -168 105
-113 157 -211 207 -385 l22 -77 3 -2148 2 -2149 613 5 c685 5 680 4 988 81
213 53 329 95 525 191 258 127 481 291 689 506 167 174 287 352 425 634 109
223 163 395 211 675 20 121 23 479 5 639 -42 362 -175 722 -378 1027 -358 536
-889 873 -1549 983 -189 31 -404 41 -949 41 l-495 1 -55 71 c-110 142 -251
239 -420 288 -99 28 -279 36 -370 15z m2005 -925 c460 -43 843 -217 1146 -521
328 -331 503 -766 502 -1254 0 -609 -255 -1142 -718 -1499 -263 -204 -529
-321 -890 -391 -103 -20 -365 -31 -632 -27 l-212 4 -1 1763 c0 969 3 1801 6
1849 l7 86 341 0 c188 0 391 -5 451 -10z"/>
<path d="M4810 6226 l0 -173 183 -6 c251 -9 383 -38 551 -125 230 -118 424
-338 516 -584 130 -352 69 -797 -150 -1089 -112 -150 -300 -296 -470 -365
-143 -58 -241 -76 -442 -81 l-188 -5 0 -171 0 -170 143 6 c287 13 550 85 765
208 213 122 406 315 535 531 157 262 219 482 220 773 0 286 -61 529 -187 742
-270 457 -714 683 -1341 683 l-135 0 0 -174z"/>
<path d="M2780 7305 c0 -3 -3 -122 -6 -265 l-6 -260 246 0 246 0 -2 -1850 -3
-1849 -239 -3 -240 -3 0 -265 -1 -265 403 -3 402 -2 -2 2132 c-3 2050 -4 2135
-22 2188 -50 149 -145 279 -255 349 -62 40 -172 77 -267 91 -78 10 -254 14
-254 5z"/>
</g>
</svg>
